PathFileType  4	(X/Y/Z) C:\Users\antoi\Documents\MyRepositories\mobilecap\ResultsAnalysis
DataRate	CameraRate	NumFrames	NumMarkers	Units	OrigDataRate	OrigDataStartFrame	OrigNumFrames
100.0	100.0	6	51	mm	100.0	1	289
Frame#	Time	r_knee			r_shank_antsup			r_ankle			r_calc			r_5meta			r_toe			L_knee			L_shank_antsup			L_ankle			L_calc			L_5meta			L_toe			r_sh2			r_sh3			r_sh4			L_sh2			L_sh3			r_thigh1			r_thigh2			r_thigh3			r_thigh4			r_thigh5			L_thigh1			L_thigh2			L_thigh3			L_thigh4			r.ASIS			r.PSIS			L.ASIS			L.PSIS			C7			R_Shoulder			L_Shoulder			R_Sternum			L_Sternum			R_humerus			R_elbow_med			R_elbow_lat			R_forearm			R_wrist_radius			R_wrist_ulna			L_humerus			L_elbow_med			L_elbow_lat			L_forearm			L_wrist_radius			L_wrist_ulna			R_HJC			L_HJC			R_HJC_reg			L_HJC_reg			
		X1	Y1	Z1	X2	Y2	Z2	X3	Y3	Z3	X4	Y4	Z4	X5	Y5	Z5	X6	Y6	Z6	X7	Y7	Z7	X8	Y8	Z8	X9	Y9	Z9	X10	Y10	Z10	X11	Y11	Z11	X12	Y12	Z12	X13	Y13	Z13	X14	Y14	Z14	X15	Y15	Z15	X16	Y16	Z16	X17	Y17	Z17	X18	Y18	Z18	X19	Y19	Z19	X20	Y20	Z20	X21	Y21	Z21	X22	Y22	Z22	X23	Y23	Z23	X24	Y24	Z24	X25	Y25	Z25	X26	Y26	Z26	X27	Y27	Z27	X28	Y28	Z28	X29	Y29	Z29	X30	Y30	Z30	X31	Y31	Z31	X32	Y32	Z32	X33	Y33	Z33	X34	Y34	Z34	X35	Y35	Z35	X36	Y36	Z36	X37	Y37	Z37	X38	Y38	Z38	X39	Y39	Z39	X40	Y40	Z40	X41	Y41	Z41	X42	Y42	Z42	X43	Y43	Z43	X44	Y44	Z44	X45	Y45	Z45	X46	Y46	Z46	X47	Y47	Z47	X48	Y48	Z48	X49	Y49	Z49	X50	Y50	Z50	X51	Y51	Z51	

1	0.00000000	-1253.96479	847.45409	-451.73279	-1232.16776	770.25405	-436.76226	-1294.71156	409.60986	-453.60401	-1351.60693	359.30837	-501.90988	-1156.18556	345.23007	-404.34251	-1118.13098	368.90876	-463.27026	-1237.88257	847.06601	-759.23248	-1215.18048	729.39232	-769.58454	-1289.65123	405.40444	-748.83014	-1358.46692	361.07993	-712.35624	-1138.07446	339.37209	-781.68817	-1115.02821	366.28203	-717.13033	-1239.11318	657.14709	-425.87384	-1306.69277	776.44695	-422.07230	-1320.73131	658.88679	-421.30968	-1300.77030	745.35827	-792.09033	-1308.81908	622.60977	-787.38396	-1171.85665	1163.77188	-424.48820	-1165.32860	1052.21735	-432.11375	-1221.02307	1023.32517	-407.92177	-1284.47111	1153.31831	-428.91227	-1272.19916	1037.56783	-424.41479	-1150.23753	1166.28762	-779.51883	-1146.62136	1028.53982	-774.70468	-1266.43996	1163.10788	-800.06621	-1256.24552	1022.64539	-790.92538	-1134.00834	1352.87709	-473.54164	-1315.81836	1421.91501	-560.52674	-1123.08674	1349.11744	-734.16922	-1312.38342	1420.23007	-667.06356	-1285.25984	1923.08931	-628.82488	-1250.06348	1882.78707	-453.01688	-1220.10660	1886.70171	-785.24256	-1143.66231	1846.38013	-584.25665	-1140.31756	1840.27219	-643.50383	-1287.66559	1618.08901	-356.83426	-1313.19461	1522.59436	-432.41183	-1311.84568	1531.06519	-345.44094	-1226.46948	1394.92923	-324.85156	-1170.43369	1293.05593	-334.42574	-1210.30426	1287.04076	-314.10099	-1235.38407	1627.63886	-872.59564	-1288.79139	1538.67491	-814.23480	-1262.68334	1540.03951	-878.39134	-1194.28121	1381.01910	-890.13049	-1148.89448	1291.11976	-876.64516	-1185.44976	1280.82242	-891.64411	-1230.35209	1288.69402	-484.99084	-1217.99968	1285.12297	-714.99972	-1217.08337	1289.65682	-512.28813	-1211.53543	1286.93540	-684.36025	
2	0.01000000	-1253.74161	847.43265	-451.80424	-1232.06277	770.24534	-436.68148	-1294.69412	409.59536	-453.60692	-1351.59830	359.34633	-501.93661	-1156.22226	345.29139	-404.34659	-1118.13156	368.91094	-463.25869	-1237.56465	847.12014	-759.33067	-1214.91085	729.33630	-769.55443	-1289.61662	405.53553	-749.03305	-1358.47280	361.03039	-712.27802	-1138.09362	339.38381	-781.73902	-1115.01470	366.24393	-717.06016	-1238.91381	657.16476	-425.95415	-1305.68951	775.10284	-422.55090	-1320.53987	658.97176	-421.19629	-1300.48732	745.40663	-792.10961	-1308.55560	622.65255	-787.37411	-1171.55540	1163.82910	-424.27241	-1165.65315	1052.34539	-432.10485	-1220.93122	1023.28850	-407.89818	-1284.68534	1153.71853	-427.90348	-1272.17111	1037.50366	-424.44362	-1149.86244	1166.76203	-779.37416	-1146.35851	1028.59343	-774.40566	-1266.48446	1162.96039	-799.11264	-1255.97003	1022.67900	-791.00837	-1134.07410	1352.95022	-473.25553	-1315.92857	1422.10466	-560.31384	-1123.12417	1349.16132	-734.11780	-1312.48582	1420.22681	-666.86837	-1285.17648	1922.97664	-628.78483	-1249.78560	1882.89051	-452.97798	-1219.60140	1886.75080	-785.16123	-1143.34473	1846.41985	-584.06858	-1139.88388	1840.19988	-643.27526	-1287.98873	1618.32004	-356.70543	-1313.96510	1522.68935	-432.23469	-1312.30441	1531.26942	-345.28053	-1226.14391	1395.54381	-324.73188	-1169.67551	1294.02923	-334.58404	-1209.44916	1287.83670	-314.08118	-1235.37119	1627.94140	-872.87949	-1289.06448	1538.68764	-814.94675	-1262.69530	1540.18213	-878.90717	-1193.81561	1381.30385	-890.34890	-1148.28101	1291.59223	-876.55938	-1184.51102	1281.12488	-891.89326	-1230.42601	1288.80326	-484.77784	-1218.09764	1285.17057	-714.78703	-1217.25704	1289.92307	-511.94219	-1211.69324	1286.88906	-684.16373	
3	0.02000000	-1253.47584	847.29819	-451.85750	-1231.86587	770.16810	-436.66697	-1294.71459	409.56254	-453.59455	-1351.60032	359.31534	-501.87842	-1156.25491	345.29205	-404.33283	-1118.15082	368.88826	-463.24563	-1237.24570	846.93675	-758.92132	-1214.62036	729.25265	-769.53235	-1289.60843	405.48865	-748.96561	-1358.53699	360.95159	-712.17662	-1138.11577	339.39976	-781.82665	-1115.00492	366.22802	-717.02139	-1239.16445	657.11578	-425.97478	-1305.25986	774.60018	-422.69124	-1320.42041	658.95333	-421.20632	-1300.20138	745.44623	-792.13672	-1308.31728	622.70859	-787.37624	-1171.25636	1163.87742	-424.13414	-1165.65268	1052.43054	-432.13950	-1220.81204	1023.27711	-407.86874	-1284.79568	1153.78796	-426.96929	-1272.05220	1037.42612	-424.33838	-1149.62896	1166.98576	-779.36281	-1146.09719	1028.58728	-774.10445	-1266.43267	1162.82916	-798.64663	-1255.68678	1022.61006	-790.98616	-1134.19384	1353.03355	-473.10557	-1316.09933	1422.23035	-560.09334	-1123.19287	1349.18629	-734.01509	-1312.59141	1420.17752	-666.75471	-1284.78622	1923.09024	-628.89897	-1249.43549	1882.96409	-452.82474	-1219.09765	1886.77004	-785.13780	-1143.00486	1846.47122	-583.96707	-1139.48517	1840.11137	-643.04794	-1288.38664	1618.62358	-356.49918	-1314.94686	1522.75506	-432.03140	-1312.79387	1531.54756	-345.10980	-1225.86109	1396.24931	-324.64083	-1168.79327	1295.01404	-334.73599	-1208.40474	1288.67253	-313.97775	-1235.32009	1628.18150	-873.20487	-1289.36611	1538.66568	-815.50376	-1262.70450	1540.42943	-879.85338	-1193.30292	1381.61182	-890.58491	-1147.49543	1292.10925	-876.37718	-1183.51921	1281.45522	-891.95902	-1230.52472	1288.88797	-484.59960	-1218.20356	1285.18316	-714.60803	-1217.46005	1290.17303	-511.75405	-1211.79568	1286.85908	-684.00050	
4	0.03000000	-1253.19007	847.11799	-451.86483	-1231.58384	770.05557	-436.65825	-1294.75677	409.50597	-453.57342	-1351.60501	359.24486	-501.78559	-1156.28106	345.19812	-404.31699	-1118.17562	368.84836	-463.24570	-1236.84425	846.60273	-758.30270	-1214.29855	729.17016	-769.53263	-1289.60086	405.36854	-748.84895	-1358.75035	360.85035	-712.05849	-1138.13296	339.40252	-781.89614	-1115.01463	366.22984	-717.02829	-1239.26615	656.95590	-426.07079	-1305.12678	774.63523	-422.54207	-1320.26622	658.87368	-421.25588	-1299.87218	745.44623	-792.15233	-1308.04469	622.77754	-787.47775	-1171.00092	1163.89245	-424.05417	-1165.13131	1052.41280	-432.18138	-1220.64096	1023.21756	-407.86067	-1284.64194	1153.35348	-426.80970	-1271.89495	1037.27923	-424.20581	-1149.51087	1166.97253	-779.44102	-1145.83040	1028.54378	-773.85686	-1266.22417	1162.72335	-799.02696	-1255.42084	1022.43652	-790.79927	-1134.36226	1353.10457	-473.05306	-1316.31558	1422.23724	-559.89126	-1123.28934	1349.18238	-733.88189	-1312.71967	1420.10406	-666.67881	-1284.38369	1923.39683	-629.18076	-1249.02870	1883.08922	-452.66511	-1218.60928	1886.72506	-785.00754	-1142.59264	1846.44692	-583.82797	-1139.08489	1840.01740	-642.84365	-1288.85657	1619.02768	-356.20486	-1315.89032	1522.97125	-431.72760	-1313.34549	1531.87016	-344.82672	-1225.59745	1397.06613	-324.59825	-1167.74866	1296.12419	-334.88360	-1207.13107	1289.56630	-313.95878	-1235.29709	1628.39628	-873.62883	-1289.68396	1538.64828	-816.06291	-1262.80271	1540.75191	-880.86885	-1192.73792	1382.00728	-890.86680	-1146.51724	1292.65719	-876.22453	-1182.25521	1281.96463	-892.45096	-1230.64422	1288.91591	-484.45945	-1218.31529	1285.15784	-714.46662	-1217.64459	1290.27721	-511.71032	-1211.84646	1286.83772	-683.89983	
5	0.04000000	-1252.86026	847.04258	-451.80160	-1231.25466	769.94219	-436.59389	-1294.77876	409.45071	-453.55186	-1351.60535	359.20582	-501.76051	-1156.29232	345.08811	-404.31686	-1118.17842	368.81415	-463.26523	-1236.32208	846.37181	-758.06369	-1213.92693	729.06038	-769.48628	-1289.58512	405.31233	-748.86078	-1358.76191	360.78189	-712.06407	-1138.13699	339.38175	-781.91236	-1115.03651	366.21617	-717.05608	-1238.73491	656.70432	-426.25606	-1304.73813	774.62259	-422.40185	-1320.02387	658.83940	-421.25019	-1299.45216	745.38810	-792.06342	-1307.73347	622.76951	-787.53978	-1170.80142	1163.91446	-423.94002	-1164.54792	1052.31466	-432.17177	-1220.39861	1023.10963	-407.86211	-1284.32525	1152.76684	-427.34437	-1271.76219	1037.03161	-424.24380	-1149.35846	1166.78930	-779.44627	-1145.54471	1028.51737	-773.71191	-1265.95036	1162.61164	-799.74770	-1255.18719	1022.24063	-790.46556	-1134.58279	1353.11067	-472.98361	-1316.56260	1422.18342	-559.72226	-1123.40822	1349.16994	-733.76998	-1312.88271	1420.05261	-666.60291	-1284.26170	1923.62780	-629.41985	-1248.64666	1883.28690	-452.61648	-1218.10493	1886.65853	-784.71094	-1142.13015	1846.34439	-583.56105	-1138.61687	1839.93525	-642.71718	-1289.39740	1619.43919	-355.93661	-1316.81161	1523.27850	-431.31608	-1313.98165	1532.19031	-344.42601	-1225.26034	1397.93181	-324.63971	-1166.60748	1297.43985	-335.02043	-1205.72446	1290.58735	-314.00178	-1235.40269	1628.67507	-874.20981	-1290.00330	1538.71008	-816.88745	-1263.03003	1541.08668	-881.58830	-1192.12110	1382.54342	-891.31598	-1145.44755	1293.30187	-876.23043	-1180.75695	1282.66846	-893.52207	-1230.82248	1288.88141	-484.35741	-1218.45537	1285.13427	-714.36272	-1217.85281	1290.24163	-511.69979	-1211.92544	1286.80933	-683.86012	
6	0.05000000	-1252.34844	847.09384	-451.66508	-1230.82661	769.78574	-436.54425	-1294.76663	409.44393	-453.54705	-1351.60934	359.21555	-501.81529	-1156.28328	345.09254	-404.32733	-1118.16073	368.79395	-463.29591	-1235.74099	846.29457	-758.16333	-1213.47286	728.83364	-769.31260	-1289.58294	405.28804	-748.86676	-1358.44438	360.77628	-712.23568	-1138.13658	339.34618	-781.91246	-1115.03256	366.16364	-717.05662	-1238.10208	656.47366	-426.35540	-1304.08804	774.57394	-422.44995	-1319.77305	658.87332	-421.23117	-1298.93441	745.32684	-791.85268	-1307.45886	622.59353	-787.25475	-1170.67676	1163.99198	-423.79393	-1164.44985	1052.28270	-432.14660	-1220.07452	1023.05263	-407.85444	-1284.13345	1152.48777	-427.62828	-1271.61889	1036.71820	-424.42930	-1149.00693	1166.72512	-779.19522	-1145.22595	1028.53359	-773.67229	-1265.77197	1162.44488	-799.84982	-1254.92584	1022.07474	-790.14095	-1134.86937	1353.06232	-472.82960	-1316.79938	1422.11140	-559.68193	-1123.56238	1349.19174	-733.69496	-1313.07410	1420.02445	-666.56417	-1284.04399	1923.66313	-629.42583	-1248.30131	1883.46295	-452.59247	-1217.49536	1886.67145	-784.46880	-1141.68539	1846.28660	-583.33824	-1138.07260	1839.86410	-642.66645	-1290.01627	1619.79574	-355.73738	-1318.08142	1523.37624	-430.90208	-1314.70095	1532.52200	-344.05705	-1224.79635	1398.85586	-324.67742	-1165.39711	1298.92615	-335.14942	-1204.29456	1291.79667	-313.83318	-1235.60103	1629.03533	-874.85576	-1290.35472	1538.88613	-817.96333	-1263.29920	1541.45336	-882.34508	-1191.43505	1383.19832	-892.02479	-1144.36171	1294.15865	-876.38878	-1179.38151	1283.42082	-894.39850	-1231.08324	1288.81329	-484.31216	-1218.60129	1285.13299	-714.31229	-1218.10251	1290.14440	-511.61928	-1212.10028	1286.78204	-683.83357	
